<svg width="18" height="28" fill="none" xmlns="http://www.w3.org/2000/svg"><path d="M4.7752 1.63998L15.7183 6.5L4.7752 11.36L4.7752 1.63998Z" stroke="white"/><path d="M15.4702 24.98L13.7402 21.32H13.2502V21.07H15.5502V21.32H15.0702L16.0802 23.55L16.8002 21.78C16.8602 21.65 16.8802 21.56 16.8802 21.5C16.8802 21.36 16.8202 21.32 16.5802 21.32H16.2602V21.07H17.9602V21.32H17.7202C17.3602 21.31 17.2502 21.38 17.1102 21.71L15.2002 26.39C14.9502 27 14.8602 27.18 14.6902 27.37C14.5002 27.59 14.2802 27.7 14.0402 27.7C13.6702 27.7 13.3902 27.45 13.3902 27.11C13.3902 26.82 13.6202 26.58 13.9102 26.58C14.1102 26.58 14.2802 26.69 14.4202 26.91C14.4602 26.97 14.5002 27 14.5602 27C14.6602 27 14.7902 26.78 14.9902 26.26L15.4702 24.98Z" fill="white"/><path d="M13.2973 24.44L13.4573 24.6C13.2073 24.89 12.8873 25.05 12.5573 25.05C12.2073 25.05 11.8973 24.83 11.6973 24.44C11.3373 24.87 10.8573 25.1 10.3273 25.1C9.6673 25.1 9.22729 24.73 9.22729 24.16C9.22729 23.32 10.0973 22.8 11.6973 22.67V22.42C11.6873 21.61 11.6873 21.61 11.6173 21.47C11.5273 21.32 11.3373 21.24 11.0473 21.24C10.6773 21.24 10.4273 21.34 10.4273 21.5C10.4273 21.54 10.4473 21.58 10.4973 21.67C10.5773 21.79 10.6073 21.88 10.6073 22C10.6073 22.28 10.3573 22.51 10.0473 22.51C9.7673 22.51 9.55729 22.28 9.55729 21.98C9.55729 21.41 10.2773 20.97 11.1973 20.97C11.7873 20.97 12.2973 21.13 12.5673 21.39C12.7773 21.59 12.8173 21.74 12.8173 22.37V24.19C12.8173 24.51 12.8573 24.59 13.0273 24.59C13.1173 24.59 13.1973 24.54 13.2973 24.44ZM11.6973 23.44V22.94C10.8173 22.95 10.3473 23.25 10.3473 23.84C10.3473 24.27 10.6273 24.58 11.0273 24.58C11.2573 24.58 11.4473 24.47 11.5673 24.27C11.6673 24.1 11.6973 23.91 11.6973 23.44Z" fill="white"/><path d="M7.0096 24.75V18.58H6.3396V18.33H6.6496C7.4696 18.33 7.7796 18.3 8.2096 18.22V24.75H8.8696V25H6.3396V24.75H7.0096Z" fill="white"/><path d="M1.25728 24.75V18.58H0.457275V18.33H3.39728C4.74728 18.33 5.18728 18.42 5.61728 18.8C5.99728 19.12 6.20728 19.6 6.20728 20.12C6.20728 20.62 6.00728 21.08 5.63728 21.41C5.22728 21.78 4.76728 21.88 3.40728 21.88H2.65728V24.75H3.55728V25H0.457275V24.75H1.25728ZM2.65728 21.63H3.39728C4.36728 21.63 4.68728 21.25 4.68728 20.13C4.68728 18.89 4.42728 18.58 3.37728 18.58H2.65728V21.63Z" fill="white"/></svg>